<svg xmlns="http://www.w3.org/2000/svg" version="1.1" xmlns:xlink="http://www.w3.org/1999/xlink" xmlns:svgjs="http://svgjs.dev/svgjs" width="1500" height="1500" viewBox="0 0 1500 1500"><rect width="1500" height="1500" fill="#ffffff"></rect><g transform="matrix(0.6666666666666666,0,0,0.6666666666666666,250.66024294544115,220.4291497975708)"><svg viewBox="0 0 233 247" data-background-color="#fffff5" preserveAspectRatio="xMidYMid meet" height="1590" width="1500" xmlns="http://www.w3.org/2000/svg" xmlns:xlink="http://www.w3.org/1999/xlink"><g id="tight-bounds" transform="matrix(1,0,0,1,-0.15383660628779694,-0.09999999999999432)"><svg viewBox="0 0 233.3076732125756 247.2" height="247.2" width="233.3076732125756"><g><svg viewBox="0 0 395.52 419.0712746550589" height="247.2" width="233.3076732125756"><g transform="matrix(1,0,0,1,0,269.15448956650033)"><svg viewBox="0 0 395.52 149.91678508855858" height="149.91678508855858" width="395.52"><g id="textblocktransform"><svg viewBox="0 0 395.52 149.91678508855858" height="149.91678508855858" width="395.52" id="textblock"><g><svg viewBox="0 0 395.52 103.10965779467682" height="103.10965779467682" width="395.52"><g transform="matrix(1,0,0,1,0,0)"><svg width="395.52" viewBox="5.35 -42.3 210.38 54.85" height="103.10965779467682" data-palette-color="#091627"><path d="M10.2-4.2L28.55-4.2 28.55 0 5.35 0 5.35-37.9 28.3-37.9 28.3-33.7 10.2-33.7 10.2-21.15 25.8-21.15 25.8-16.95 10.2-16.95 10.2-4.2ZM44.55-27.65Q48.95-27.65 51.25-26.18 53.55-24.7 54.3-22.23 55.05-19.75 55.05-16L55.05-16 55.05 0 50.35 0 50.35-2.75Q48.45-0.95 46.55-0.15 44.65 0.65 42.45 0.65L42.45 0.65Q39.85 0.65 37.75-0.48 35.65-1.6 34.42-3.73 33.2-5.85 33.2-8.75L33.2-8.75Q33.2-13.25 36-15.73 38.8-18.2 43.55-18.2L43.55-18.2Q47.3-18.2 50.3-16.55L50.3-16.55Q50.25-19 49.8-20.45 49.35-21.9 47.95-22.68 46.55-23.45 43.8-23.45L43.8-23.45 40.1-23.45 40.1-27.65 44.55-27.65ZM43.1-3.4Q44.8-3.4 46.67-4.2 48.55-5 50.35-6.6L50.35-6.6 50.35-12.9Q47.55-14.3 44.25-14.3L44.25-14.3Q41.6-14.3 39.8-13.03 38-11.75 38-8.75L38-8.75Q38-5.95 39.52-4.67 41.05-3.4 43.1-3.4L43.1-3.4ZM71.2 0.85Q68.15 0.85 65.8 0.35 63.45-0.15 60.9-1.35L60.9-1.35 60.9-6Q65.64-3.35 71.2-3.35L71.2-3.35Q74-3.35 75.22-4.48 76.45-5.6 76.45-7.45L76.45-7.45Q76.45-9.25 75.47-10.1 74.5-10.95 72.3-11.55L72.3-11.55 69.05-12.35Q65.55-13.2 63.55-15.05 61.55-16.9 61.55-20.5L61.55-20.5Q61.55-24.25 64-26.35 66.45-28.45 71.2-28.45L71.2-28.45Q73.65-28.45 75.75-27.98 77.84-27.5 79.95-26.65L79.95-26.65 79.95-22.25Q77.9-23.2 75.9-23.73 73.9-24.25 71.34-24.25L71.34-24.25Q68.7-24.25 67.52-23.23 66.34-22.2 66.34-20.65L66.34-20.65Q66.34-18.95 67.37-18.07 68.4-17.2 70.34-16.7L70.34-16.7 73.65-15.95Q76.15-15.35 77.77-14.45 79.4-13.55 80.32-11.93 81.25-10.3 81.25-7.6L81.25-7.6Q81.25-3.55 78.52-1.35 75.8 0.85 71.2 0.85L71.2 0.85ZM105.99-27.65L110.74-27.65 98.49 4.45Q97.19 7.85 96.14 9.5 95.09 11.15 93.67 11.85 92.24 12.55 89.74 12.55L89.74 12.55Q88.29 12.55 86.79 12.15L86.79 12.15 86.79 7.9Q88.09 8.2 89.39 8.2L89.39 8.2Q91.09 8.2 92.07 7.2 93.04 6.2 94.19 3.25L94.19 3.25 95.49-0.1 84.99-27.65 89.89-27.65 97.84-6.25 105.99-27.65ZM136.94-19.25Q143.74-17.05 143.74-10.25L143.74-10.25Q143.74-5.05 140.62-2.53 137.49 0 130.19 0L130.19 0 117.09 0 117.09-37.9 130.19-37.9Q136.84-37.9 139.54-35.4 142.24-32.9 142.24-27.75L142.24-27.75Q142.24-24.7 140.97-22.58 139.69-20.45 136.94-19.25L136.94-19.25ZM121.94-33.8L121.94-21.05 130.19-21.05Q137.24-21.05 137.29-27.4L137.29-27.4Q137.29-30.9 135.74-32.35 134.19-33.8 130.19-33.8L130.19-33.8 121.94-33.8ZM138.79-10.55Q138.79-13.9 136.62-15.43 134.44-16.95 130.19-16.95L130.19-16.95 121.94-16.95 121.94-4.1 130.19-4.1Q134.89-4.1 136.84-5.65 138.79-7.2 138.79-10.55L138.79-10.55ZM151.69-32.85L151.69-40.4 156.39-40.4 156.39-32.85 151.69-32.85ZM151.69 0L151.69-27.65 156.39-27.65 156.39 0 151.69 0ZM172.44 0.65Q168.69 0.65 167.03-0.85 165.38-2.35 165.38-5.9L165.38-5.9 165.38-42.3 170.08-42.3 170.08-7.15Q170.08-5.15 170.71-4.42 171.33-3.7 173.08-3.7L173.08-3.7Q174.48-3.7 175.58-4L175.58-4 175.58 0.3Q173.58 0.65 172.44 0.65L172.44 0.65ZM188.38 0.65Q184.63 0.65 182.98-0.85 181.33-2.35 181.33-5.9L181.33-5.9 181.33-42.3 186.03-42.3 186.03-7.15Q186.03-5.15 186.66-4.42 187.28-3.7 189.03-3.7L189.03-3.7Q190.43-3.7 191.53-4L191.53-4 191.53 0.3Q189.53 0.65 188.38 0.65L188.38 0.65ZM205.68 0.85Q202.63 0.85 200.28 0.35 197.93-0.15 195.38-1.35L195.38-1.35 195.38-6Q200.13-3.35 205.68-3.35L205.68-3.35Q208.48-3.35 209.7-4.48 210.93-5.6 210.93-7.45L210.93-7.45Q210.93-9.25 209.95-10.1 208.98-10.95 206.78-11.55L206.78-11.55 203.53-12.35Q200.03-13.2 198.03-15.05 196.03-16.9 196.03-20.5L196.03-20.5Q196.03-24.25 198.48-26.35 200.93-28.45 205.68-28.45L205.68-28.45Q208.13-28.45 210.23-27.98 212.33-27.5 214.43-26.65L214.43-26.65 214.43-22.25Q212.38-23.2 210.38-23.73 208.38-24.25 205.83-24.25L205.83-24.25Q203.18-24.25 202-23.23 200.83-22.2 200.83-20.65L200.83-20.65Q200.83-18.95 201.85-18.07 202.88-17.2 204.83-16.7L204.83-16.7 208.13-15.95Q210.63-15.35 212.25-14.45 213.88-13.55 214.8-11.93 215.73-10.3 215.73-7.6L215.73-7.6Q215.73-3.55 213-1.35 210.28 0.85 205.68 0.85L205.68 0.85Z" opacity="1" transform="matrix(1,0,0,1,0,0)" fill="#000000" class="wordmark-text-0" data-fill-palette-color="primary" id="text-0"></path></svg></g></svg></g><g transform="matrix(1,0,0,1,75.54432,127.45137336821296)"><svg viewBox="0 0 244.43135999999998 22.46541172034564" height="22.46541172034564" width="244.43135999999998"><g transform="matrix(1,0,0,1,0,0)"><svg width="244.43135999999998" viewBox="0.15 -35.6 509.14000000000004 46.8" height="22.46541172034564" data-palette-color="#091627"><path d="M10.15-18.35L10.15-18.35 8.6-13.35 18.45-13.35 16.9-18.35Q16-21.1 15.2-23.83 14.4-26.55 13.6-29.4L13.6-29.4 13.4-29.4Q12.65-26.55 11.85-23.83 11.05-21.1 10.15-18.35ZM4.4 0L0.15 0 11.25-32.8 15.95-32.8 27.05 0 22.6 0 19.5-10 7.55-10 4.4 0ZM35.85 0L31.7 0 31.7-32.8 35.85-32.8 35.85 0ZM60.04 0.6L60.04 0.6Q56.99 0.6 54.97-1.2 52.94-3 52.94-6.3L52.94-6.3Q52.94-10.3 56.49-12.43 60.04-14.55 67.84-15.4L67.84-15.4Q67.84-16.55 67.62-17.65 67.39-18.75 66.84-19.6 66.29-20.45 65.32-20.98 64.34-21.5 62.84-21.5L62.84-21.5Q60.74-21.5 58.89-20.7 57.04-19.9 55.59-18.9L55.59-18.9 53.99-21.75Q55.69-22.85 58.14-23.88 60.59-24.9 63.54-24.9L63.54-24.9Q67.99-24.9 69.99-22.18 71.99-19.45 71.99-14.9L71.99-14.9 71.99 0 68.59 0 68.24-2.9 68.09-2.9Q66.34-1.45 64.34-0.43 62.34 0.6 60.04 0.6ZM61.24-2.7L61.24-2.7Q62.99-2.7 64.54-3.53 66.09-4.35 67.84-5.95L67.84-5.95 67.84-12.7Q64.79-12.3 62.72-11.75 60.64-11.2 59.37-10.45 58.09-9.7 57.52-8.72 56.94-7.75 56.94-6.6L56.94-6.6Q56.94-4.5 58.19-3.6 59.44-2.7 61.24-2.7ZM85.99 0.6L85.99 0.6Q83.39 0.6 81.04-0.35 78.69-1.3 76.94-2.75L76.94-2.75 78.99-5.5Q80.59-4.2 82.27-3.4 83.94-2.6 86.14-2.6L86.14-2.6Q88.54-2.6 89.74-3.7 90.94-4.8 90.94-6.4L90.94-6.4Q90.94-7.35 90.44-8.05 89.94-8.75 89.17-9.28 88.39-9.8 87.39-10.2 86.39-10.6 85.39-11L85.39-11Q84.09-11.45 82.79-12.03 81.49-12.6 80.47-13.43 79.44-14.25 78.79-15.35 78.14-16.45 78.14-18L78.14-18Q78.14-19.45 78.72-20.73 79.29-22 80.37-22.93 81.44-23.85 82.99-24.38 84.54-24.9 86.49-24.9L86.49-24.9Q88.79-24.9 90.72-24.1 92.64-23.3 94.04-22.15L94.04-22.15 92.09-19.55Q90.84-20.5 89.49-21.1 88.14-21.7 86.54-21.7L86.54-21.7Q84.24-21.7 83.17-20.65 82.09-19.6 82.09-18.2L82.09-18.2Q82.09-17.35 82.54-16.73 82.99-16.1 83.74-15.63 84.49-15.15 85.47-14.78 86.44-14.4 87.49-14L87.49-14Q88.79-13.5 90.12-12.95 91.44-12.4 92.49-11.58 93.54-10.75 94.22-9.55 94.89-8.35 94.89-6.65L94.89-6.65Q94.89-5.15 94.32-3.85 93.74-2.55 92.62-1.55 91.49-0.55 89.82 0.03 88.14 0.6 85.99 0.6ZM106.94 0.6L106.94 0.6Q104.34 0.6 101.99-0.35 99.64-1.3 97.89-2.75L97.89-2.75 99.94-5.5Q101.54-4.2 103.21-3.4 104.89-2.6 107.09-2.6L107.09-2.6Q109.49-2.6 110.69-3.7 111.89-4.8 111.89-6.4L111.89-6.4Q111.89-7.35 111.39-8.05 110.89-8.75 110.11-9.28 109.34-9.8 108.34-10.2 107.34-10.6 106.34-11L106.34-11Q105.04-11.45 103.74-12.03 102.44-12.6 101.41-13.43 100.39-14.25 99.74-15.35 99.09-16.45 99.09-18L99.09-18Q99.09-19.45 99.66-20.73 100.24-22 101.31-22.93 102.39-23.85 103.94-24.38 105.49-24.9 107.44-24.9L107.44-24.9Q109.74-24.9 111.66-24.1 113.59-23.3 114.99-22.15L114.99-22.15 113.04-19.55Q111.79-20.5 110.44-21.1 109.09-21.7 107.49-21.7L107.49-21.7Q105.19-21.7 104.11-20.65 103.04-19.6 103.04-18.2L103.04-18.2Q103.04-17.35 103.49-16.73 103.94-16.1 104.69-15.63 105.44-15.15 106.41-14.78 107.39-14.4 108.44-14L108.44-14Q109.74-13.5 111.06-12.95 112.39-12.4 113.44-11.58 114.49-10.75 115.16-9.55 115.84-8.35 115.84-6.65L115.84-6.65Q115.84-5.15 115.26-3.85 114.69-2.55 113.56-1.55 112.44-0.55 110.76 0.03 109.09 0.6 106.94 0.6ZM125.64 0L121.54 0 121.54-24.3 125.64-24.3 125.64 0ZM123.64-29.3L123.64-29.3Q122.44-29.3 121.61-30.05 120.79-30.8 120.79-31.95L120.79-31.95Q120.79-33.15 121.61-33.88 122.44-34.6 123.64-34.6L123.64-34.6Q124.84-34.6 125.66-33.88 126.49-33.15 126.49-31.95L126.49-31.95Q126.49-30.8 125.66-30.05 124.84-29.3 123.64-29.3ZM140.18 0.6L140.18 0.6Q137.58 0.6 135.23-0.35 132.88-1.3 131.13-2.75L131.13-2.75 133.18-5.5Q134.78-4.2 136.46-3.4 138.13-2.6 140.33-2.6L140.33-2.6Q142.73-2.6 143.93-3.7 145.13-4.8 145.13-6.4L145.13-6.4Q145.13-7.35 144.63-8.05 144.13-8.75 143.36-9.28 142.58-9.8 141.58-10.2 140.58-10.6 139.58-11L139.58-11Q138.28-11.45 136.98-12.03 135.68-12.6 134.66-13.43 133.63-14.25 132.98-15.35 132.33-16.45 132.33-18L132.33-18Q132.33-19.45 132.91-20.73 133.48-22 134.56-22.93 135.63-23.85 137.18-24.38 138.73-24.9 140.68-24.9L140.68-24.9Q142.98-24.9 144.91-24.1 146.83-23.3 148.23-22.15L148.23-22.15 146.28-19.55Q145.03-20.5 143.68-21.1 142.33-21.7 140.73-21.7L140.73-21.7Q138.43-21.7 137.36-20.65 136.28-19.6 136.28-18.2L136.28-18.2Q136.28-17.35 136.73-16.73 137.18-16.1 137.93-15.63 138.68-15.15 139.66-14.78 140.63-14.4 141.68-14L141.68-14Q142.98-13.5 144.31-12.95 145.63-12.4 146.68-11.58 147.73-10.75 148.41-9.55 149.08-8.35 149.08-6.65L149.08-6.65Q149.08-5.15 148.51-3.85 147.93-2.55 146.81-1.55 145.68-0.55 144.01 0.03 142.33 0.6 140.18 0.6ZM161.43 0.6L161.43 0.6Q159.48 0.6 158.16 0 156.83-0.6 156.01-1.65 155.18-2.7 154.83-4.2 154.48-5.7 154.48-7.5L154.48-7.5 154.48-20.95 150.88-20.95 150.88-24.05 154.68-24.3 155.18-31.1 158.63-31.1 158.63-24.3 165.18-24.3 165.18-20.95 158.63-20.95 158.63-7.45Q158.63-5.2 159.46-3.98 160.28-2.75 162.38-2.75L162.38-2.75Q163.03-2.75 163.78-2.95 164.53-3.15 165.13-3.4L165.13-3.4 165.93-0.3Q164.93 0.05 163.76 0.33 162.58 0.6 161.43 0.6ZM179.83 0.6L179.83 0.6Q177.38 0.6 175.25-0.28 173.13-1.15 171.55-2.78 169.98-4.4 169.08-6.75 168.18-9.1 168.18-12.1L168.18-12.1Q168.18-15.1 169.1-17.48 170.03-19.85 171.55-21.5 173.08-23.15 175.03-24.03 176.98-24.9 179.08-24.9L179.08-24.9Q181.38-24.9 183.2-24.1 185.03-23.3 186.25-21.8 187.48-20.3 188.13-18.2 188.78-16.1 188.78-13.5L188.78-13.5Q188.78-12.85 188.75-12.23 188.73-11.6 188.63-11.15L188.63-11.15 172.23-11.15Q172.48-7.25 174.65-4.98 176.83-2.7 180.33-2.7L180.33-2.7Q182.08-2.7 183.55-3.23 185.03-3.75 186.38-4.6L186.38-4.6 187.83-1.9Q186.23-0.9 184.28-0.15 182.33 0.6 179.83 0.6ZM172.18-14.1L172.18-14.1 185.18-14.1Q185.18-17.8 183.6-19.73 182.03-21.65 179.18-21.65L179.18-21.65Q177.88-21.65 176.7-21.15 175.53-20.65 174.58-19.68 173.63-18.7 173-17.3 172.38-15.9 172.18-14.1ZM203.08 0.6L203.08 0.6Q198.48 0.6 195.75-2.7 193.03-6 193.03-12.1L193.03-12.1Q193.03-15.05 193.9-17.43 194.78-19.8 196.23-21.45 197.68-23.1 199.58-24 201.48-24.9 203.58-24.9L203.58-24.9Q205.68-24.9 207.23-24.15 208.78-23.4 210.38-22.1L210.38-22.1 210.18-26.25 210.18-35.6 214.33-35.6 214.33 0 210.93 0 210.58-2.85 210.43-2.85Q208.98-1.45 207.1-0.43 205.23 0.6 203.08 0.6ZM203.98-2.85L203.98-2.85Q205.68-2.85 207.18-3.68 208.68-4.5 210.18-6.2L210.18-6.2 210.18-18.9Q208.63-20.3 207.2-20.88 205.78-21.45 204.28-21.45L204.28-21.45Q202.83-21.45 201.55-20.78 200.28-20.1 199.33-18.88 198.38-17.65 197.83-15.95 197.28-14.25 197.28-12.15L197.28-12.15Q197.28-7.75 199.03-5.3 200.78-2.85 203.98-2.85ZM243.27 0.6L243.27 0.6Q241.57 0.6 239.75-0.23 237.92-1.05 236.32-2.5L236.32-2.5 236.17-2.5 235.82 0 232.52 0 232.52-35.6 236.62-35.6 236.62-25.9 236.52-21.5Q238.17-22.95 240.12-23.93 242.07-24.9 244.12-24.9L244.12-24.9Q246.47-24.9 248.27-24.03 250.07-23.15 251.3-21.53 252.52-19.9 253.15-17.63 253.77-15.35 253.77-12.55L253.77-12.55Q253.77-9.45 252.92-7 252.07-4.55 250.62-2.85 249.17-1.15 247.27-0.28 245.37 0.6 243.27 0.6ZM242.57-2.85L242.57-2.85Q244.07-2.85 245.35-3.53 246.62-4.2 247.55-5.43 248.47-6.65 249-8.45 249.52-10.25 249.52-12.5L249.52-12.5Q249.52-14.5 249.17-16.15 248.82-17.8 248.05-18.98 247.27-20.15 246.05-20.8 244.82-21.45 243.12-21.45L243.12-21.45Q240.17-21.45 236.62-18.15L236.62-18.15 236.62-5.4Q238.22-4 239.8-3.43 241.37-2.85 242.57-2.85ZM264.27 0L260.17 0 260.17-24.3 264.27-24.3 264.27 0ZM262.27-29.3L262.27-29.3Q261.07-29.3 260.24-30.05 259.42-30.8 259.42-31.95L259.42-31.95Q259.42-33.15 260.24-33.88 261.07-34.6 262.27-34.6L262.27-34.6Q263.47-34.6 264.29-33.88 265.12-33.15 265.12-31.95L265.12-31.95Q265.12-30.8 264.29-30.05 263.47-29.3 262.27-29.3ZM276.82 0.6L276.82 0.6Q274.47 0.6 273.47-0.8 272.47-2.2 272.47-4.9L272.47-4.9 272.47-35.6 276.57-35.6 276.57-4.6Q276.57-3.6 276.92-3.2 277.27-2.8 277.72-2.8L277.72-2.8Q277.92-2.8 278.09-2.8 278.27-2.8 278.62-2.9L278.62-2.9 279.17 0.2Q278.77 0.4 278.22 0.5 277.67 0.6 276.82 0.6ZM289.56 0.6L289.56 0.6Q287.21 0.6 286.21-0.8 285.21-2.2 285.21-4.9L285.21-4.9 285.21-35.6 289.31-35.6 289.31-4.6Q289.31-3.6 289.66-3.2 290.01-2.8 290.46-2.8L290.46-2.8Q290.66-2.8 290.84-2.8 291.01-2.8 291.36-2.9L291.36-2.9 291.91 0.2Q291.51 0.4 290.96 0.5 290.41 0.6 289.56 0.6ZM304.31 0.6L304.31 0.6Q301.71 0.6 299.36-0.35 297.01-1.3 295.26-2.75L295.26-2.75 297.31-5.5Q298.91-4.2 300.59-3.4 302.26-2.6 304.46-2.6L304.46-2.6Q306.86-2.6 308.06-3.7 309.26-4.8 309.26-6.4L309.26-6.4Q309.26-7.35 308.76-8.05 308.26-8.75 307.49-9.28 306.71-9.8 305.71-10.2 304.71-10.6 303.71-11L303.71-11Q302.41-11.45 301.11-12.03 299.81-12.6 298.79-13.43 297.76-14.25 297.11-15.35 296.46-16.45 296.46-18L296.46-18Q296.46-19.45 297.04-20.73 297.61-22 298.69-22.93 299.76-23.85 301.31-24.38 302.86-24.9 304.81-24.9L304.81-24.9Q307.11-24.9 309.04-24.1 310.96-23.3 312.36-22.15L312.36-22.15 310.41-19.55Q309.16-20.5 307.81-21.1 306.46-21.7 304.86-21.7L304.86-21.7Q302.56-21.7 301.49-20.65 300.41-19.6 300.41-18.2L300.41-18.2Q300.41-17.35 300.86-16.73 301.31-16.1 302.06-15.63 302.81-15.15 303.79-14.78 304.76-14.4 305.81-14L305.81-14Q307.11-13.5 308.44-12.95 309.76-12.4 310.81-11.58 311.86-10.75 312.54-9.55 313.21-8.35 313.21-6.65L313.21-6.65Q313.21-5.15 312.64-3.85 312.06-2.55 310.94-1.55 309.81-0.55 308.14 0.03 306.46 0.6 304.31 0.6ZM333.01 0L328.91 0 328.91-35.6 333.01-35.6 333.01-25.9 332.86-20.9Q334.61-22.55 336.51-23.73 338.41-24.9 340.96-24.9L340.96-24.9Q344.81-24.9 346.58-22.5 348.36-20.1 348.36-15.4L348.36-15.4 348.36 0 344.26 0 344.26-14.85Q344.26-18.3 343.16-19.83 342.06-21.35 339.66-21.35L339.66-21.35Q337.76-21.35 336.31-20.4 334.86-19.45 333.01-17.6L333.01-17.6 333.01 0ZM361.7 0.6L361.7 0.6Q358.65 0.6 356.63-1.2 354.6-3 354.6-6.3L354.6-6.3Q354.6-10.3 358.15-12.43 361.7-14.55 369.5-15.4L369.5-15.4Q369.5-16.55 369.28-17.65 369.05-18.75 368.5-19.6 367.95-20.45 366.98-20.98 366-21.5 364.5-21.5L364.5-21.5Q362.4-21.5 360.55-20.7 358.7-19.9 357.25-18.9L357.25-18.9 355.65-21.75Q357.35-22.85 359.8-23.88 362.25-24.9 365.2-24.9L365.2-24.9Q369.65-24.9 371.65-22.18 373.65-19.45 373.65-14.9L373.65-14.9 373.65 0 370.25 0 369.9-2.9 369.75-2.9Q368-1.45 366-0.43 364 0.6 361.7 0.6ZM362.9-2.7L362.9-2.7Q364.65-2.7 366.2-3.53 367.75-4.35 369.5-5.95L369.5-5.95 369.5-12.7Q366.45-12.3 364.38-11.75 362.3-11.2 361.03-10.45 359.75-9.7 359.18-8.72 358.6-7.75 358.6-6.6L358.6-6.6Q358.6-4.5 359.85-3.6 361.1-2.7 362.9-2.7ZM385.4 0L381.3 0 381.3-24.3 384.7-24.3 385.05-20.8 385.2-20.8Q386.95-22.55 388.88-23.73 390.8-24.9 393.35-24.9L393.35-24.9Q397.2-24.9 398.98-22.5 400.75-20.1 400.75-15.4L400.75-15.4 400.75 0 396.65 0 396.65-14.85Q396.65-18.3 395.55-19.83 394.45-21.35 392.05-21.35L392.05-21.35Q390.15-21.35 388.7-20.4 387.25-19.45 385.4-17.6L385.4-17.6 385.4 0ZM416.95 0.6L416.95 0.6Q412.35 0.6 409.62-2.7 406.9-6 406.9-12.1L406.9-12.1Q406.9-15.05 407.77-17.43 408.65-19.8 410.1-21.45 411.55-23.1 413.45-24 415.35-24.9 417.45-24.9L417.45-24.9Q419.55-24.9 421.1-24.15 422.65-23.4 424.25-22.1L424.25-22.1 424.05-26.25 424.05-35.6 428.2-35.6 428.2 0 424.8 0 424.45-2.85 424.3-2.85Q422.85-1.45 420.97-0.43 419.1 0.6 416.95 0.6ZM417.85-2.85L417.85-2.85Q419.55-2.85 421.05-3.68 422.55-4.5 424.05-6.2L424.05-6.2 424.05-18.9Q422.5-20.3 421.07-20.88 419.65-21.45 418.15-21.45L418.15-21.45Q416.7-21.45 415.42-20.78 414.15-20.1 413.2-18.88 412.25-17.65 411.7-15.95 411.15-14.25 411.15-12.15L411.15-12.15Q411.15-7.75 412.9-5.3 414.65-2.85 417.85-2.85ZM440.75 0.6L440.75 0.6Q438.4 0.6 437.4-0.8 436.4-2.2 436.4-4.9L436.4-4.9 436.4-35.6 440.5-35.6 440.5-4.6Q440.5-3.6 440.85-3.2 441.2-2.8 441.65-2.8L441.65-2.8Q441.85-2.8 442.02-2.8 442.2-2.8 442.55-2.9L442.55-2.9 443.1 0.2Q442.7 0.4 442.15 0.5 441.6 0.6 440.75 0.6ZM453.24 0L449.14 0 449.14-24.3 453.24-24.3 453.24 0ZM451.24-29.3L451.24-29.3Q450.04-29.3 449.22-30.05 448.39-30.8 448.39-31.95L448.39-31.95Q448.39-33.15 449.22-33.88 450.04-34.6 451.24-34.6L451.24-34.6Q452.44-34.6 453.27-33.88 454.09-33.15 454.09-31.95L454.09-31.95Q454.09-30.8 453.27-30.05 452.44-29.3 451.24-29.3ZM465.54 0L461.44 0 461.44-24.3 464.84-24.3 465.19-20.8 465.34-20.8Q467.09-22.55 469.02-23.73 470.94-24.9 473.49-24.9L473.49-24.9Q477.34-24.9 479.12-22.5 480.89-20.1 480.89-15.4L480.89-15.4 480.89 0 476.79 0 476.79-14.85Q476.79-18.3 475.69-19.83 474.59-21.35 472.19-21.35L472.19-21.35Q470.29-21.35 468.84-20.4 467.39-19.45 465.54-17.6L465.54-17.6 465.54 0ZM496.99 11.2L496.99 11.2Q494.74 11.2 492.89 10.78 491.04 10.35 489.71 9.5 488.39 8.65 487.66 7.45 486.94 6.25 486.94 4.65L486.94 4.65Q486.94 3.1 487.89 1.7 488.84 0.3 490.49-0.85L490.49-0.85 490.49-1.05Q489.59-1.6 488.96-2.58 488.34-3.55 488.34-5L488.34-5Q488.34-6.55 489.19-7.7 490.04-8.85 490.99-9.5L490.99-9.5 490.99-9.7Q489.79-10.7 488.81-12.38 487.84-14.05 487.84-16.25L487.84-16.25Q487.84-18.25 488.56-19.85 489.29-21.45 490.54-22.58 491.79-23.7 493.46-24.3 495.14-24.9 496.99-24.9L496.99-24.9Q497.99-24.9 498.86-24.73 499.74-24.55 500.44-24.3L500.44-24.3 508.89-24.3 508.89-21.15 503.89-21.15Q504.74-20.3 505.31-19 505.89-17.7 505.89-16.15L505.89-16.15Q505.89-14.2 505.19-12.63 504.49-11.05 503.29-9.98 502.09-8.9 500.46-8.3 498.84-7.7 496.99-7.7L496.99-7.7Q496.09-7.7 495.14-7.93 494.19-8.15 493.34-8.55L493.34-8.55Q492.69-8 492.24-7.33 491.79-6.65 491.79-5.65L491.79-5.65Q491.79-4.5 492.69-3.75 493.59-3 496.09-3L496.09-3 500.79-3Q505.04-3 507.16-1.63 509.29-0.25 509.29 2.8L509.29 2.8Q509.29 4.5 508.44 6.03 507.59 7.55 505.99 8.7 504.39 9.85 502.11 10.53 499.84 11.2 496.99 11.2ZM496.99-10.45L496.99-10.45Q498.04-10.45 498.96-10.85 499.89-11.25 500.61-12 501.34-12.75 501.74-13.83 502.14-14.9 502.14-16.25L502.14-16.25Q502.14-18.95 500.64-20.43 499.14-21.9 496.99-21.9L496.99-21.9Q494.84-21.9 493.34-20.43 491.84-18.95 491.84-16.25L491.84-16.25Q491.84-14.9 492.24-13.83 492.64-12.75 493.36-12 494.09-11.25 495.01-10.85 495.94-10.45 496.99-10.45ZM497.59 8.35L497.59 8.35Q499.34 8.35 500.76 7.93 502.19 7.5 503.19 6.83 504.19 6.15 504.74 5.25 505.29 4.35 505.29 3.4L505.29 3.4Q505.29 1.7 504.04 1.05 502.79 0.4 500.39 0.4L500.39 0.4 496.19 0.4Q495.49 0.4 494.66 0.33 493.84 0.25 493.04 0L493.04 0Q491.74 0.95 491.14 2 490.54 3.05 490.54 4.1L490.54 4.1Q490.54 6.05 492.41 7.2 494.29 8.35 497.59 8.35Z" opacity="1" transform="matrix(1,0,0,1,0,0)" fill="#000000" class="slogan-text-1" data-fill-palette-color="secondary" id="text-1"></path></svg></g></svg></g></svg></g></svg></g><g transform="matrix(1,0,0,1,87.52447079028595,0)"><svg viewBox="0 0 220.4710584194281 220.4710584194281" height="220.4710584194281" width="220.4710584194281"><g><svg></svg></g><g id="icon-0"><svg viewBox="0 0 220.4710584194281 220.4710584194281" height="220.4710584194281" width="220.4710584194281"><g><path d="M0 110.236c0-60.881 49.354-110.236 110.236-110.236 60.881 0 110.236 49.354 110.235 110.236 0 60.881-49.354 110.236-110.235 110.235-60.881 0-110.236-49.354-110.236-110.235zM110.236 211.173c55.746 0 100.937-45.191 100.937-100.937 0-55.746-45.191-100.937-100.937-100.937-55.746 0-100.937 45.191-100.937 100.937 0 55.746 45.191 100.937 100.937 100.937z" data-fill-palette-color="accent" fill="#000000" stroke="transparent"></path></g><g transform="matrix(1,0,0,1,52.73863563157205,60.63597371899035)"><svg viewBox="0 0 114.99378715628399 99.19911098144739" height="99.19911098144739" width="114.99378715628399"><g><svg xmlns="http://www.w3.org/2000/svg" xmlns:xlink="http://www.w3.org/1999/xlink" version="1.1" x="0" y="0" viewBox="0.507 7.136 98.51299999999999 84.982" enable-background="new 0 0 100 100" xml:space="preserve" height="99.19911098144739" width="114.99378715628399" class="icon-cg-0" data-fill-palette-color="accent" id="cg-0"><g fill="#dad603" data-fill-palette-color="accent"><path d="M22.048 42.728l3.781 4.727 12.813 17.784c0.061 0.085 0.131 0.137 0.207 0.163L23.004 90.852 15.187 44.39 22.048 42.728 22.048 42.728zM0.507 55.422c0.008-0.154 0.071-0.324 0.201-0.494l11.41-14.799c0.103-0.132 0.334-0.325 0.667-0.24l8.336 1.908c0.241 0.09 0.235 0.11 0.304 0.181l-6.647 1.611c-0.24 0.061-0.294 0.081-0.435 0.189L0.507 55.422 0.507 55.422zM19.537 87.812l-3.778-4.885c-0.027-0.031-0.048-0.07-0.065-0.111l2.475-1.047L19.537 87.812 19.537 87.812zM21.713 88.462c-0.284 0.136-0.674 0.322-1.066 0.287l-1.74-7.685c-0.065-0.285-0.329-0.418-0.598-0.307l-2.327 0.985c0.62-0.937 1.926-2.029 2.329-2.479L13.357 50.91 1.485 55.936c-0.115 0.047-0.224 0.073-0.325 0.082L14.382 44.89 21.713 88.462 21.713 88.462zM37.129 61.631l8.919-7.785-6.737 10.819L37.129 61.631 37.129 61.631zM39.486 86.967l-15.721 5.151c6.968-5.792 15.873-13.211 23.971-19.97L39.486 86.967 39.486 86.967zM98.23 86.475l-57.626 0.293 8.921-16.026L98.23 86.475 98.23 86.475zM99.02 85.784L50.25 70.055c9.45-7.883 17.344-14.474 18.996-15.854L99.02 85.784 99.02 85.784zM49.038 69.889c-0.044 0.032-0.08 0.07-0.104 0.112C40.737 76.85 31.492 84.555 24.16 90.65l22.048-35.404L49.038 69.889 49.038 69.889zM60.498 60.363l-10.686 8.914-2.798-14.482L60.498 60.363 60.498 60.363zM55.514 57.355l-7.964-3.289 8.808 1.449L55.514 57.355 55.514 57.355zM79.921 8.222c-0.108 1.073-5.56 50.118-5.56 50.118l-4.756-5.04c-0.146-0.159-0.437-0.178-0.604-0.038l-7.755 6.475c-0.039-0.035-4.927-2.043-4.927-2.043l6.82-14.868C63.143 42.824 79.249 9.773 79.921 8.222L79.921 8.222zM32.224 7.136c0.106 0.058 0.21 0.149 0.307 0.277l28.445 38.034-4.242 9.247-10.755-1.771c-0.06-0.01-0.313 0.062-0.359 0.104l-2.346 2.057L32.224 7.136 32.224 7.136zM26.009 46.159l5.342-38.442c0.013-0.084 0.03-0.16 0.056-0.228l11.118 48.247-5.909 5.181L26.009 46.159 26.009 46.159z" fill="#000000" data-fill-palette-color="accent"></path></g></svg></g></svg></g></svg></g></svg></g><g></g></svg></g><defs></defs></svg><rect width="233.3076732125756" height="247.2" fill="none" stroke="none" visibility="hidden"></rect></g></svg></g></svg>